<svg width="28" height="32" viewBox="0 0 28 32" fill="none" xmlns="http://www.w3.org/2000/svg">
<path d="M27.7592 9.12202C27.759 8.60031 27.6468 8.13931 27.4199 7.74366C27.197 7.35459 26.8632 7.0285 26.4155 6.77067C22.7198 4.65155 19.0205 2.5389 15.326 0.417622C14.33 -0.154203 13.3643 -0.133356 12.3756 0.446678C10.9046 1.30938 3.53984 5.50539 1.34523 6.76948C0.441421 7.28978 0.00162926 8.08606 0.00141203 9.12105C0 13.3827 0.00141203 17.6443 0 21.9061C0.000217235 22.4164 0.10764 22.8684 0.324549 23.2581C0.54754 23.6589 0.885991 23.994 1.34403 24.2577C3.53875 25.5218 10.9045 29.7174 12.3752 30.5804C13.3643 31.1607 14.33 31.1815 15.3263 30.6094C19.021 28.488 22.7205 26.3755 26.4167 24.2564C26.8747 23.9928 27.2132 23.6575 27.4362 23.257C27.6528 22.8673 27.7604 22.4153 27.7606 21.9049C27.7606 21.9049 27.7606 13.3838 27.7592 9.12202Z" fill="#5C8DBC"/>
<path d="M13.9228 15.4721L0.324551 23.2581C0.547542 23.659 0.885994 23.994 1.34403 24.2577C3.53876 25.5218 10.9045 29.7175 12.3752 30.5804C13.3643 31.1608 14.33 31.1815 15.3264 30.6095C19.021 28.4881 22.7205 26.3755 26.4167 24.2564C26.8748 23.9928 27.2132 23.6576 27.4362 23.2571L13.9228 15.4721Z" fill="#1A4674"/>
<path d="M9.89515 17.7784C10.6864 19.1521 12.1739 20.0786 13.8803 20.0786C15.5972 20.0786 17.0932 19.1403 17.8805 17.7519L13.9228 15.4721L9.89515 17.7784Z" fill="#1A4674"/>
<path d="M27.7592 9.12203C27.759 8.60033 27.6468 8.13932 27.4199 7.74367L13.9228 15.4721L27.4362 23.2571C27.6528 22.8674 27.7604 22.4153 27.7606 21.905C27.7606 21.905 27.7606 13.3838 27.7592 9.12203Z" fill="#1B598E"/>
<path d="M27.0161 16.0285H25.9602V17.0789H24.904V16.0285H23.8481V14.9785H24.904V13.9284H25.9602V14.9785H27.0161V16.0285ZM23.163 16.0285H22.1071V17.0789H21.0511V16.0285H19.9951V14.9785H21.0511V13.9284H22.1071V14.9785H23.163V16.0285Z" fill="white"/>
<path d="M17.8805 17.7519C17.0932 19.1403 15.5972 20.0786 13.8803 20.0786C12.1739 20.0786 10.6864 19.1521 9.89515 17.7784C9.49765 17.0891 9.28889 16.3081 9.28972 15.5135C9.28972 12.9924 11.3451 10.9485 13.8803 10.9485C15.5757 10.9485 17.0554 11.8635 17.8506 13.2232L21.863 10.9255C20.2682 8.18782 17.2907 6.34596 13.8803 6.34596C8.78877 6.34596 4.66142 10.4505 4.66142 15.5135C4.66142 17.1746 5.10578 18.7322 5.88239 20.0758C7.4732 22.828 10.4592 24.6812 13.8803 24.6812C17.3077 24.6812 20.2984 22.8206 21.8869 20.0603L17.8805 17.7519Z" fill="white"/>
</svg>
