<svg width="1024" height="953" viewBox="0 0 1024 953" fill="none" xmlns="http://www.w3.org/2000/svg">
<g clip-path="url(#clip0_1_23)">
<path d="M642.977 452.465L238.14 381.023V908.907C238.14 933.015 257.683 952.558 281.791 952.558H980.349C1004.46 952.558 1024 933.015 1024 908.907V714.419L642.977 452.465Z" fill="#185C37"/>
<path d="M642.977 0H281.791C257.683 0 238.14 19.5431 238.14 43.6509V238.14L642.977 476.279L857.302 547.721L1024 476.279V238.14L642.977 0Z" fill="#21A366"/>
<path d="M238.14 238.14H642.977V476.279H238.14V238.14Z" fill="#107C41"/>
<path opacity="0.1" d="M527.884 190.512H238.14V785.86H527.884C551.959 785.782 571.457 766.285 571.535 742.21V234.162C571.457 210.087 551.959 190.59 527.884 190.512Z" fill="black"/>
<path opacity="0.2" d="M504.07 214.326H238.14V809.674H504.07C528.145 809.596 547.643 790.099 547.721 766.024V257.976C547.643 233.901 528.145 214.404 504.07 214.326Z" fill="black"/>
<path opacity="0.2" d="M504.07 214.326H238.14V762.047H504.07C528.145 761.968 547.643 742.471 547.721 718.396V257.976C547.643 233.901 528.145 214.404 504.07 214.326Z" fill="black"/>
<path opacity="0.2" d="M480.256 214.326H238.14V762.047H480.256C504.331 761.968 523.829 742.471 523.907 718.396V257.976C523.829 233.901 504.331 214.404 480.256 214.326Z" fill="black"/>
<path d="M43.6509 214.326H480.256C504.363 214.326 523.907 233.869 523.907 257.976V694.581C523.907 718.689 504.363 738.232 480.256 738.232H43.6509C19.5431 738.233 0 718.689 0 694.582V257.976C0 233.869 19.5431 214.326 43.6509 214.326Z" fill="url(#paint0_linear_1_23)"/>
<path d="M135.192 618.163L227.019 475.874L142.884 334.372H210.563L256.476 424.865C260.715 433.461 263.62 439.843 265.192 444.058H265.788C268.804 437.2 271.979 430.54 275.313 424.078L324.394 334.419H386.524L300.246 475.089L388.715 618.162H322.608L269.574 518.835C267.076 514.609 264.956 510.17 263.24 505.57H262.454C260.901 510.076 258.839 514.39 256.31 518.43L201.705 618.163H135.192Z" fill="white"/>
<path d="M980.349 0H642.977V238.14H1024V43.6509C1024 19.5431 1004.46 0 980.349 0Z" fill="#33C481"/>
<path d="M642.977 476.279H1024V714.419H642.977V476.279Z" fill="#107C41"/>
</g>
<defs>
<linearGradient id="paint0_linear_1_23" x1="91.0132" y1="180.218" x2="432.894" y2="772.341" gradientUnits="userSpaceOnUse">
<stop stop-color="#18884F"/>
<stop offset="0.5" stop-color="#117E43"/>
<stop offset="1" stop-color="#0B6631"/>
</linearGradient>
<clipPath id="clip0_1_23">
<rect width="1024" height="952.558" fill="white"/>
</clipPath>
</defs>
</svg>
