<svg width="73" height="100" viewBox="0 0 73 100" fill="none" xmlns="http://www.w3.org/2000/svg">
<g clip-path="url(#clip0_2_70)">
<mask id="mask0_2_70" style="mask-type:alpha" maskUnits="userSpaceOnUse" x="-1" y="0" width="73" height="100">
<path d="M44.1923 0H5.77885C2.05048 0 -1 3.06818 -1 6.81818V93.1818C-1 96.9318 2.05048 100 5.77885 100H64.5288C68.2572 100 71.3077 96.9318 71.3077 93.1818V27.2727L44.1923 0Z" fill="white"/>
</mask>
<g mask="url(#mask0_2_70)">
<path d="M44.1923 0H5.77885C2.05048 0 -1 3.06818 -1 6.81818V93.1818C-1 96.9318 2.05048 100 5.77885 100H64.5288C68.2572 100 71.3077 96.9318 71.3077 93.1818V27.2727L55.4904 15.9091L44.1923 0Z" fill="#4285F4"/>
</g>
<mask id="mask1_2_70" style="mask-type:alpha" maskUnits="userSpaceOnUse" x="-1" y="0" width="73" height="100">
<path d="M44.1923 0H5.77885C2.05048 0 -1 3.06818 -1 6.81818V93.1818C-1 96.9318 2.05048 100 5.77885 100H64.5288C68.2572 100 71.3077 96.9318 71.3077 93.1818V27.2727L44.1923 0Z" fill="white"/>
</mask>
<g mask="url(#mask1_2_70)">
<path d="M46.1751 25.2784L71.3077 50.5511V27.2727L46.1751 25.2784Z" fill="url(#paint0_linear_2_70)"/>
</g>
<mask id="mask2_2_70" style="mask-type:alpha" maskUnits="userSpaceOnUse" x="-1" y="0" width="73" height="100">
<path d="M44.1923 0H5.77885C2.05048 0 -1 3.06818 -1 6.81818V93.1818C-1 96.9318 2.05048 100 5.77885 100H64.5288C68.2572 100 71.3077 96.9318 71.3077 93.1818V27.2727L44.1923 0Z" fill="white"/>
</mask>
<g mask="url(#mask2_2_70)">
<path d="M17.0769 72.7273H53.2308V68.1818H17.0769V72.7273ZM17.0769 81.8182H44.1923V77.2727H17.0769V81.8182ZM17.0769 50V54.5455H53.2308V50H17.0769ZM17.0769 63.6364H53.2308V59.0909H17.0769V63.6364Z" fill="#F1F1F1"/>
</g>
<mask id="mask3_2_70" style="mask-type:alpha" maskUnits="userSpaceOnUse" x="-1" y="0" width="73" height="100">
<path d="M44.1923 0H5.77885C2.05048 0 -1 3.06818 -1 6.81818V93.1818C-1 96.9318 2.05048 100 5.77885 100H64.5288C68.2572 100 71.3077 96.9318 71.3077 93.1818V27.2727L44.1923 0Z" fill="white"/>
</mask>
<g mask="url(#mask3_2_70)">
<path d="M44.1923 0V20.4545C44.1923 24.2216 47.2258 27.2727 50.9712 27.2727H71.3077L44.1923 0Z" fill="#A1C2FA"/>
</g>
<mask id="mask4_2_70" style="mask-type:alpha" maskUnits="userSpaceOnUse" x="-1" y="0" width="73" height="100">
<path d="M44.1923 0H5.77885C2.05048 0 -1 3.06818 -1 6.81818V93.1818C-1 96.9318 2.05048 100 5.77885 100H64.5288C68.2572 100 71.3077 96.9318 71.3077 93.1818V27.2727L44.1923 0Z" fill="white"/>
</mask>
<g mask="url(#mask4_2_70)">
<path d="M5.77885 0C2.05048 0 -1 3.06818 -1 6.81818V7.38636C-1 3.63636 2.05048 0.568182 5.77885 0.568182H44.1923V0H5.77885Z" fill="white" fill-opacity="0.2"/>
</g>
<mask id="mask5_2_70" style="mask-type:alpha" maskUnits="userSpaceOnUse" x="-1" y="0" width="73" height="100">
<path d="M44.1923 0H5.77885C2.05048 0 -1 3.06818 -1 6.81818V93.1818C-1 96.9318 2.05048 100 5.77885 100H64.5288C68.2572 100 71.3077 96.9318 71.3077 93.1818V27.2727L44.1923 0Z" fill="white"/>
</mask>
<g mask="url(#mask5_2_70)">
<path d="M64.5288 99.4318H5.77885C2.05048 99.4318 -1 96.3636 -1 92.6136V93.1818C-1 96.9318 2.05048 100 5.77885 100H64.5288C68.2572 100 71.3077 96.9318 71.3077 93.1818V92.6136C71.3077 96.3636 68.2572 99.4318 64.5288 99.4318Z" fill="#1A237E" fill-opacity="0.2"/>
</g>
<mask id="mask6_2_70" style="mask-type:alpha" maskUnits="userSpaceOnUse" x="-1" y="0" width="73" height="100">
<path d="M44.1923 0H5.77885C2.05048 0 -1 3.06818 -1 6.81818V93.1818C-1 96.9318 2.05048 100 5.77885 100H64.5288C68.2572 100 71.3077 96.9318 71.3077 93.1818V27.2727L44.1923 0Z" fill="white"/>
</mask>
<g mask="url(#mask6_2_70)">
<path d="M50.9712 27.2727C47.2258 27.2727 44.1923 24.2216 44.1923 20.4545V21.0227C44.1923 24.7898 47.2258 27.8409 50.9712 27.8409H71.3077V27.2727H50.9712Z" fill="#1A237E" fill-opacity="0.1"/>
<path d="M44.1923 0H5.77885C2.05048 0 -1 3.06818 -1 6.81818V93.1818C-1 96.9318 2.05048 100 5.77885 100H64.5288C68.2572 100 71.3077 96.9318 71.3077 93.1818V27.2727L44.1923 0Z" fill="url(#paint1_radial_2_70)"/>
</g>
</g>
<defs>
<linearGradient id="paint0_linear_2_70" x1="58.7428" y1="27.4484" x2="58.7428" y2="50.5547" gradientUnits="userSpaceOnUse">
<stop stop-color="#1A237E" stop-opacity="0.2"/>
<stop offset="1" stop-color="#1A237E" stop-opacity="0.02"/>
</linearGradient>
<radialGradient id="paint1_radial_2_70" cx="0" cy="0" r="1" gradientUnits="userSpaceOnUse" gradientTransform="translate(1.29074 1.9765) scale(116.595 116.595)">
<stop stop-color="white" stop-opacity="0.1"/>
<stop offset="1" stop-color="white" stop-opacity="0"/>
</radialGradient>
<clipPath id="clip0_2_70">
<rect width="73" height="100" fill="white"/>
</clipPath>
</defs>
</svg>
