<svg width="112" height="100" viewBox="0 0 112 100" fill="none" xmlns="http://www.w3.org/2000/svg">
<g clip-path="url(#clip0_2_2)">
<path d="M7.46154 85.7051L12.3974 94.2308C13.4231 96.0256 14.8974 97.4359 16.6282 98.4615L34.2564 67.9487H-1C-1 69.9359 -0.487179 71.9231 0.53846 73.7179L7.46154 85.7051Z" fill="#0066DA"/>
<path d="M54.9615 32.0513L37.3333 1.53846C35.6026 2.5641 34.1282 3.97436 33.1026 5.76923L0.53846 62.1795C-0.468317 63.9357 -0.99866 65.9244 -1 67.9487H34.2564L54.9615 32.0513Z" fill="#00AC47"/>
<path d="M93.2949 98.4615C95.0256 97.4359 96.5 96.0256 97.5256 94.2308L99.577 90.7051L109.385 73.7179C110.41 71.9231 110.923 69.9359 110.923 67.9487H75.6641L83.1667 82.6923L93.2949 98.4615Z" fill="#EA4335"/>
<path d="M54.9615 32.0513L72.5898 1.53846C70.859 0.512821 68.8718 0 66.8205 0H43.1026C41.0513 0 39.0641 0.576923 37.3333 1.53846L54.9615 32.0513Z" fill="#00832D"/>
<path d="M75.6667 67.9487H34.2564L16.6282 98.4615C18.359 99.4872 20.3462 100 22.3974 100H87.5256C89.5769 100 91.5641 99.4231 93.2949 98.4615L75.6667 67.9487Z" fill="#2684FC"/>
<path d="M93.1026 33.9744L76.8205 5.76923C75.7949 3.97436 74.3205 2.5641 72.5897 1.53846L54.9615 32.0513L75.6667 67.9487H110.859C110.859 65.9615 110.346 63.9744 109.321 62.1795L93.1026 33.9744Z" fill="#FFBA00"/>
</g>
<defs>
<clipPath id="clip0_2_2">
<rect width="112" height="100" fill="white"/>
</clipPath>
</defs>
</svg>
