<svg width="32" height="32" viewBox="0 0 32 32" fill="none" xmlns="http://www.w3.org/2000/svg">
<path d="M15.5292 23.1583C22.4122 32.5412 29.1481 20.5394 29.1381 13.3218C29.1266 4.78864 20.4774 0.0194092 15.5236 0.0194092C7.57227 0.0192877 0 6.59066 0 15.5818C0 25.5755 8.68012 31.1111 15.5236 31.1111C13.975 30.8881 8.81404 29.7823 8.74477 17.8953C8.69799 9.85575 11.3673 6.64364 15.5124 8.05665C15.6053 8.09104 20.0845 9.85806 20.0845 15.6303C20.0845 21.378 15.5292 23.1582 15.5292 23.1582V23.1583Z" fill="url(#paint0_linear_1_5789)"/>
<path d="M15.5212 8.05007C10.9731 6.48248 5.40167 10.231 5.40167 17.739C5.40167 29.9983 14.4862 31.111 15.5875 31.111C23.5388 31.111 31.1111 24.5396 31.1111 15.5486C31.1111 5.55486 22.431 0.0192751 15.5875 0.0192751C17.483 -0.243225 25.8038 2.07066 25.8038 13.443C25.8038 20.8593 19.5908 24.8967 15.5497 23.1718C15.4569 23.1374 10.9775 21.3704 10.9775 15.5982C10.9775 9.85026 15.5212 8.05007 15.5212 8.05007Z" fill="url(#paint1_linear_1_5789)"/>
<defs>
<linearGradient id="paint0_linear_1_5789" x1="4.6012" y1="4.60139" x2="27.841" y2="25.0122" gradientUnits="userSpaceOnUse">
<stop/>
<stop offset="1" stop-color="white"/>
</linearGradient>
<linearGradient id="paint1_linear_1_5789" x1="26.5184" y1="26.5181" x2="1.36472" y2="9.3409" gradientUnits="userSpaceOnUse">
<stop/>
<stop offset="1" stop-color="white"/>
</linearGradient>
</defs>
</svg>
