<svg width="1024" height="953" viewBox="0 0 1024 953" fill="none" xmlns="http://www.w3.org/2000/svg">
<g clip-path="url(#clip0_1_50)">
<path d="M785.86 952.558H281.743C257.661 952.558 238.139 933.036 238.139 908.955V43.6034C238.139 19.5217 257.661 0 281.743 0H980.397C1004.48 0 1024 19.5217 1024 43.6034V238.139L785.86 952.558Z" fill="#CA64EA"/>
<path d="M1024 476.279L904.93 547.721L785.86 476.279V238.139H1024L1024 476.279Z" fill="#AE4BD5"/>
<path d="M1024 714.419L904.93 785.861L785.861 714.419V476.279H1024V714.419Z" fill="#9332BF"/>
<path d="M785.861 714.419H1024V907.907C1024 932.567 1004.01 952.559 979.349 952.559H785.861V714.419Z" fill="#7719AA"/>
<path opacity="0.2" d="M527.884 190.512H238.14V785.86H527.884C551.959 785.782 571.457 766.285 571.535 742.21V234.163C571.457 210.088 551.959 190.59 527.884 190.512Z" fill="black"/>
<path opacity="0.2" d="M504.07 214.326H238.139V809.674H504.07C528.145 809.596 547.642 790.098 547.721 766.023V257.977C547.643 233.901 528.145 214.404 504.07 214.326Z" fill="black"/>
<path opacity="0.5" d="M504.07 214.326H238.139V762.047H504.07C528.145 761.968 547.642 742.471 547.721 718.396V257.977C547.643 233.901 528.145 214.404 504.07 214.326Z" fill="black"/>
<path opacity="0.5" d="M480.256 214.326H238.139V762.047H480.256C504.331 761.968 523.828 742.471 523.907 718.396V257.977C523.829 233.901 504.331 214.404 480.256 214.326Z" fill="black"/>
<path d="M43.6512 214.326H480.256C504.364 214.326 523.907 233.869 523.907 257.977V694.582C523.907 718.69 504.364 738.233 480.256 738.233H43.6512C19.5434 738.232 0 718.69 0 694.582V257.977C0 233.869 19.5434 214.326 43.6512 214.326Z" fill="url(#paint0_linear_1_50)"/>
<path d="M143.503 334.396H202.681L318.964 522.526C324.251 530.956 328.22 537.743 330.871 542.887H331.634C330.195 530.08 329.622 517.191 329.919 504.308V334.396H380.405V618.163H325.013L204.371 424.817C200.285 418.438 196.687 411.759 193.607 404.837H192.655C193.871 418.917 194.372 433.049 194.155 447.179V618.163H143.503V334.396Z" fill="white"/>
</g>
<defs>
<linearGradient id="paint0_linear_1_50" x1="91.0133" y1="180.218" x2="432.894" y2="772.341" gradientUnits="userSpaceOnUse">
<stop stop-color="#8324B3"/>
<stop offset="0.5" stop-color="#7A1BAC"/>
<stop offset="1" stop-color="#621197"/>
</linearGradient>
<clipPath id="clip0_1_50">
<rect width="1024" height="952.558" fill="white"/>
</clipPath>
</defs>
</svg>
