<svg width="1024" height="953" viewBox="0 0 1024 953" fill="none" xmlns="http://www.w3.org/2000/svg">
<g clip-path="url(#clip0_1_61)">
<path d="M1024 500.093C1024.05 492.086 1019.92 484.633 1013.09 480.446H1012.97L1012.54 480.208L657.716 270.169C656.184 269.134 654.594 268.188 652.953 267.336C639.253 260.267 622.979 260.267 609.279 267.336C607.638 268.188 606.048 269.134 604.516 270.169L249.689 480.208L249.261 480.446C238.416 487.19 235.091 501.449 241.835 512.293C243.822 515.489 246.559 518.151 249.808 520.049L604.636 730.088C606.173 731.114 607.763 732.06 609.399 732.922C623.099 739.99 639.373 739.99 653.074 732.922C654.709 732.06 656.299 731.115 657.837 730.088L1012.66 520.049C1019.75 515.916 1024.08 508.298 1024 500.093Z" fill="#0A2767"/>
<path d="M291.054 359.852H523.906V573.297H291.054V359.852ZM976.371 142.884V45.2463C976.931 20.8347 957.608 0.584956 933.197 0H328.942C304.53 0.584956 285.208 20.8347 285.767 45.2463V142.884L642.976 238.139L976.371 142.884Z" fill="#0364B8"/>
<path d="M285.767 142.884H523.906V357.209H285.767V142.884Z" fill="#0078D4"/>
<path d="M762.046 142.884H523.906V357.209L762.046 571.534H976.371V357.209L762.046 142.884Z" fill="#28A8EA"/>
<path d="M523.906 357.209H762.045V571.534H523.906V357.209Z" fill="#0078D4"/>
<path d="M523.906 571.534H762.045V785.86H523.906V571.534Z" fill="#0364B8"/>
<path d="M291.054 573.297H523.906V767.332H291.054V573.297Z" fill="#14447D"/>
<path d="M762.046 571.534H976.371V785.86H762.046V571.534Z" fill="#0078D4"/>
<path d="M1013.09 518.739L1012.64 518.977L657.812 718.538C656.264 719.49 654.693 720.395 653.049 721.205C647.022 724.075 640.477 725.695 633.808 725.968L614.423 714.632C612.785 713.81 611.195 712.896 609.66 711.894L250.07 506.665H249.903L238.139 500.093V904.072C238.323 931.025 260.314 952.729 287.267 952.558H975.633C976.038 952.558 976.395 952.367 976.823 952.367C982.516 952.003 988.129 950.832 993.493 948.89C995.811 947.908 998.048 946.745 1000.18 945.413C1001.78 944.509 1004.52 942.532 1004.52 942.532C1016.72 933.505 1023.94 919.249 1024 904.073V500.093C1023.99 507.819 1019.82 514.944 1013.09 518.739Z" fill="url(#paint0_linear_1_61)"/>
<path opacity="0.5" d="M1004.95 498.497V523.264L633.927 778.716L249.808 506.832C249.808 506.701 249.701 506.594 249.57 506.594L214.325 485.399V467.539L228.852 467.3L259.572 484.923L260.286 485.161L262.905 486.828C262.905 486.828 623.924 692.819 624.877 693.295L638.689 701.391C639.88 700.915 641.07 700.439 642.499 699.962C643.214 699.486 1000.9 498.258 1000.9 498.258L1004.95 498.497Z" fill="#0A2767"/>
<path d="M1013.09 518.739L1012.64 519.001L657.812 718.561C656.264 719.514 654.693 720.418 653.049 721.228C639.269 727.96 623.154 727.96 609.374 721.228C607.742 720.42 606.153 719.53 604.611 718.561L249.785 519.001L249.356 518.739C242.506 515.025 238.211 507.885 238.14 500.093V904.072C238.31 931.021 260.294 952.728 287.242 952.558C287.242 952.558 287.243 952.558 287.244 952.558H974.895C1001.84 952.729 1023.83 931.022 1024 904.074C1024 904.074 1024 904.073 1024 904.072V500.093C1023.99 507.819 1019.82 514.944 1013.09 518.739Z" fill="#1490DF"/>
<path opacity="0.1" d="M662.98 715.609L657.669 718.585C656.13 719.565 654.54 720.464 652.906 721.276C647.056 724.148 640.694 725.832 634.189 726.23L769.19 885.878L1004.69 942.627C1011.14 937.753 1016.27 931.343 1019.62 923.98L662.98 715.609Z" fill="black"/>
<path opacity="0.05" d="M687.032 702.083L657.669 718.585C656.13 719.565 654.54 720.464 652.906 721.276C647.056 724.148 640.694 725.832 634.189 726.23L697.439 900.619L1004.76 942.555C1016.86 933.466 1023.99 919.211 1024 904.072V898.856L687.032 702.083Z" fill="black"/>
<path d="M287.911 952.557H974.823C985.394 952.611 995.702 949.272 1004.23 943.032L614.399 714.68C612.761 713.858 611.171 712.944 609.637 711.942L250.046 506.713H249.88L238.14 500.093V902.691C238.113 930.205 260.396 952.531 287.911 952.557Z" fill="#28A8EA"/>
<path opacity="0.1" d="M571.534 234.162V742.114C571.492 759.923 560.663 775.931 544.148 782.598C539.032 784.796 533.523 785.931 527.955 785.932H238.139V214.325H285.767V190.512H527.955C552.013 190.603 571.482 210.104 571.534 234.162Z" fill="black"/>
<path opacity="0.2" d="M547.721 257.976V765.927C547.78 771.68 546.561 777.374 544.148 782.597C537.535 798.898 521.733 809.592 504.141 809.673H238.139V214.325H504.141C511.051 214.256 517.86 215.98 523.906 219.327C538.505 226.681 547.715 241.63 547.721 257.976Z" fill="black"/>
<path opacity="0.2" d="M547.721 257.976V718.3C547.604 742.347 528.188 761.837 504.141 762.045H238.139V214.325H504.141C511.051 214.256 517.86 215.98 523.906 219.327C538.505 226.681 547.715 241.63 547.721 257.976Z" fill="black"/>
<path opacity="0.2" d="M523.906 257.976V718.3C523.881 742.384 504.411 761.928 480.327 762.046H238.139V214.325H480.327C504.408 214.338 523.919 233.871 523.906 257.953C523.906 257.961 523.906 257.968 523.906 257.976Z" fill="black"/>
<path d="M43.6508 214.325H480.256C504.363 214.325 523.906 233.869 523.906 257.976V694.581C523.906 718.689 504.363 738.232 480.256 738.232H43.6508C19.5429 738.232 0 718.688 0 694.581V257.976C0 233.869 19.5435 214.325 43.6508 214.325Z" fill="url(#paint1_linear_1_61)"/>
<path d="M136.43 397.407C147.189 374.485 164.554 355.303 186.297 342.326C210.376 328.54 237.791 321.668 265.526 322.465C291.231 321.907 316.595 328.423 338.849 341.301C359.772 353.779 376.623 372.061 387.358 393.93C399.048 418.027 404.874 444.547 404.361 471.325C404.928 499.311 398.933 527.04 386.858 552.292C375.868 574.943 358.482 593.877 336.848 606.755C313.737 620.028 287.431 626.715 260.787 626.092C234.533 626.726 208.609 620.136 185.844 607.041C164.74 594.547 147.677 576.244 136.692 554.316C124.933 530.567 119.037 504.346 119.499 477.85C119.009 450.102 124.797 422.603 136.43 397.407ZM189.583 526.717C195.319 541.207 205.046 553.775 217.635 562.961C230.459 571.924 245.813 576.547 261.453 576.154C278.109 576.813 294.526 572.032 308.224 562.533C320.654 553.375 330.125 540.773 335.467 526.288C341.438 510.11 344.384 492.973 344.159 475.731C344.343 458.324 341.573 441.012 335.967 424.531C331.015 409.652 321.848 396.531 309.581 386.762C296.226 376.813 279.853 371.768 263.215 372.474C247.237 372.06 231.538 376.72 218.374 385.786C205.571 395.011 195.659 407.69 189.797 422.34C176.792 455.921 176.724 493.136 189.606 526.764L189.583 526.717Z" fill="white"/>
<path d="M762.046 142.884H976.371V357.209H762.046V142.884Z" fill="#50D9FF"/>
</g>
<defs>
<linearGradient id="paint0_linear_1_61" x1="631.069" y1="500.093" x2="631.069" y2="952.558" gradientUnits="userSpaceOnUse">
<stop stop-color="#35B8F1"/>
<stop offset="1" stop-color="#28A8EA"/>
</linearGradient>
<linearGradient id="paint1_linear_1_61" x1="91.0132" y1="180.218" x2="432.893" y2="772.34" gradientUnits="userSpaceOnUse">
<stop stop-color="#1784D9"/>
<stop offset="0.5" stop-color="#107AD5"/>
<stop offset="1" stop-color="#0A63C9"/>
</linearGradient>
<clipPath id="clip0_1_61">
<rect width="1024" height="952.558" fill="white"/>
</clipPath>
</defs>
</svg>
