<svg width="32" height="16" viewBox="0 0 32 16" fill="none" xmlns="http://www.w3.org/2000/svg">
<path fill-rule="evenodd" clip-rule="evenodd" d="M15.6425 15.7663C24.2816 15.7663 31.2849 12.2367 31.2849 7.88313C31.2849 3.52953 24.2816 0 15.6425 0C7.00353 0 0 3.52953 0 7.88313C0 12.2367 7.00353 15.7663 15.6425 15.7663Z" fill="#6E81B6"/>
<path fill-rule="evenodd" clip-rule="evenodd" d="M18.8126 10.4311L19.5885 6.45989C19.7637 5.56359 19.618 4.89508 19.1559 4.4726C18.7082 4.06386 17.9482 3.86503 16.8326 3.86503H15.4888L15.8732 1.8975C15.8804 1.86088 15.8794 1.82313 15.8702 1.78696C15.861 1.75078 15.8438 1.71708 15.82 1.68828C15.7961 1.65947 15.7662 1.63627 15.7322 1.62035C15.6983 1.60442 15.6612 1.59616 15.6237 1.59616H13.7691C13.6473 1.59616 13.5427 1.68212 13.5194 1.801L12.6953 6.01691C12.6204 5.54252 12.4358 5.13472 12.1403 4.7982C11.5963 4.17897 10.7358 3.86503 9.58259 3.86503H5.98795C5.86614 3.86503 5.76154 3.951 5.73827 4.06969L4.07052 12.6035C4.05596 12.6778 4.07544 12.7541 4.12386 12.8124C4.17209 12.8709 4.24397 12.9046 4.3202 12.9046H6.1894C6.31121 12.9046 6.41581 12.8186 6.43908 12.6996L6.84254 10.6355H8.23394C8.96406 10.6355 9.57767 10.5569 10.0566 10.4019C10.5463 10.2435 10.9971 9.97493 11.3943 9.60512C11.7153 9.31187 11.9805 8.98345 12.1846 8.62926L11.8515 10.3342C11.8369 10.4085 11.8564 10.4852 11.9048 10.5432C11.953 10.6017 12.0251 10.6354 12.1011 10.6354H13.9558C14.0776 10.6354 14.1822 10.5494 14.2055 10.4307L15.1208 5.74642H16.3934C16.9357 5.74642 17.0946 5.85383 17.1379 5.89991C17.177 5.94205 17.2584 6.09046 17.167 6.55826L16.4293 10.334C16.4222 10.3706 16.4234 10.4083 16.4327 10.4445C16.4419 10.4806 16.4591 10.5142 16.4829 10.543C16.5068 10.5717 16.5367 10.5949 16.5706 10.6108C16.6045 10.6268 16.6415 10.6351 16.679 10.6352H18.5631C18.6221 10.6353 18.6792 10.615 18.7248 10.5777C18.7703 10.5405 18.8014 10.4886 18.8126 10.4311ZM10.2142 7.14984C10.0976 7.74518 9.87823 8.16973 9.56159 8.41181C9.24003 8.65841 8.72573 8.78331 8.03287 8.78331H7.20438L7.80343 5.71764H8.87459C9.66146 5.71764 9.97848 5.88486 10.1058 6.025C10.2823 6.21949 10.3197 6.60868 10.2142 7.14984ZM26.6248 4.7982C26.081 4.17897 25.2205 3.86503 24.0673 3.86503H20.4726C20.3506 3.86503 20.2462 3.951 20.2229 4.06969L18.5554 12.6035C18.5406 12.6778 18.5601 12.7541 18.6085 12.8124C18.6569 12.8707 18.729 12.9046 18.8047 12.9046H20.6741C20.7961 12.9046 20.9005 12.8186 20.9237 12.6996L21.3272 10.6355H22.7188C23.4491 10.6355 24.0621 10.5569 24.5413 10.4019C25.0312 10.2435 25.4819 9.97493 25.8789 9.60512C26.2103 9.30247 26.4829 8.9622 26.6895 8.59483C26.896 8.22747 27.0441 7.81779 27.1306 7.37688C27.343 6.28947 27.1729 5.42195 26.6248 4.7982ZM24.8049 7.14984C24.6882 7.74518 24.4688 8.16973 24.1526 8.41181C23.8308 8.65841 23.3165 8.78331 22.6238 8.78331H21.7952L22.394 5.71764H23.4654C24.2522 5.71764 24.5693 5.88486 24.6967 6.025C24.8728 6.21949 24.9105 6.60868 24.8049 7.14984Z" fill="white"/>
<path fill-rule="evenodd" clip-rule="evenodd" d="M8.82138 5.46468C9.53145 5.46468 10.0049 5.59503 10.2415 5.85574C10.478 6.11645 10.5343 6.56413 10.4106 7.19821C10.2813 7.85863 10.0323 8.33001 9.66348 8.61254C9.29464 8.89507 8.73323 9.03614 7.97965 9.03614H6.84247L7.54044 5.46468H8.82138ZM4.26678 12.6516H6.13599L6.57955 10.3829H8.18072C8.8872 10.3829 9.46847 10.309 9.9247 10.1614C10.3809 10.0137 10.7957 9.76635 11.1689 9.41893C11.4822 9.13283 11.7356 8.81682 11.9297 8.47147C12.1236 8.12611 12.2613 7.74521 12.3428 7.32857C12.5407 6.31696 12.3914 5.52901 11.8955 4.96471C11.3997 4.40022 10.6108 4.11807 9.52937 4.11807H5.93473L4.26678 12.6516ZM13.7157 1.8492H15.5703L15.127 4.11807H16.7794C17.8186 4.11807 18.536 4.29827 18.9306 4.65886C19.3252 5.01944 19.4434 5.60387 19.2857 6.41176L18.5097 10.3829H16.6256L17.3633 6.60701C17.4471 6.17739 17.4164 5.88452 17.2706 5.72821C17.1248 5.57208 16.8144 5.49383 16.34 5.49383H14.8578L13.9024 10.3829H12.0477L13.7157 1.8492ZM23.4122 5.46468C24.1223 5.46468 24.5955 5.59503 24.8323 5.85574C25.0688 6.11645 25.125 6.56413 25.0013 7.19821C24.8723 7.85863 24.6233 8.33001 24.2543 8.61254C23.8856 8.89507 23.324 9.03614 22.5708 9.03614H21.4337L22.1314 5.46468H23.4122ZM18.8572 12.6516H20.7266L21.17 10.3829H22.7712C23.4778 10.3829 24.0591 10.309 24.5153 10.1614C24.9716 10.0137 25.3864 9.76635 25.7596 9.41893C26.0728 9.13283 26.3263 8.81682 26.5202 8.47147C26.714 8.12611 26.8519 7.74521 26.9336 7.32857C27.1313 6.31696 26.9821 5.52901 26.4863 4.96471C25.9901 4.40022 25.2014 4.11807 24.12 4.11807H20.5254L18.8572 12.6516Z" fill="black"/>
</svg>
