<svg width="1024" height="953" viewBox="0 0 1024 953" fill="none" xmlns="http://www.w3.org/2000/svg">
<g clip-path="url(#clip0_1_2)">
<path d="M619.163 523.907L547.721 0H542.386C282.606 0.75842 72.2003 211.164 71.4419 470.945V476.279L619.163 523.907Z" fill="#ED6C47"/>
<path d="M553.056 0H547.721V476.279L785.86 571.535L1024 476.279V470.945C1023.24 211.164 812.836 0.75842 553.056 0Z" fill="#FF8F6B"/>
<path d="M1024 476.279V481.518C1023.25 741.357 812.799 951.813 552.96 952.558H542.482C282.643 951.813 72.1875 741.357 71.4419 481.518V476.279H1024Z" fill="#D35230"/>
<path opacity="0.1" d="M571.535 234.091V742.281C571.417 759.939 560.716 775.803 544.387 782.526C539.188 784.725 533.601 785.859 527.955 785.86H183.844C177.176 778.24 170.746 770.143 164.793 762.046C104.122 681.111 71.363 582.669 71.4419 481.518V471.04C71.3027 379.804 97.9669 290.537 148.123 214.325C153.362 206.228 158.839 198.132 164.793 190.511H527.955C551.948 190.693 571.354 210.098 571.535 234.091Z" fill="black"/>
<path opacity="0.2" d="M547.721 257.905V766.095C547.72 771.74 546.586 777.328 544.387 782.526C537.663 798.855 521.8 809.556 504.141 809.674H205.514C197.979 802.025 190.75 794.081 183.843 785.86C177.175 778.24 170.746 770.143 164.792 762.047C104.121 681.112 71.3623 582.668 71.4412 481.518V471.04C71.302 379.805 97.9662 290.538 148.122 214.326H504.141C528.134 214.507 547.539 233.912 547.721 257.905Z" fill="black"/>
<path opacity="0.2" d="M547.721 257.905V718.467C547.54 742.46 528.134 761.865 504.142 762.047H164.793C104.122 681.112 71.363 582.669 71.4419 481.519V471.041C71.3027 379.805 97.9669 290.538 148.123 214.326H504.141C528.134 214.507 547.54 233.912 547.721 257.905Z" fill="black"/>
<path opacity="0.2" d="M523.907 257.905V718.467C523.726 742.46 504.32 761.865 480.328 762.047H164.793C104.122 681.112 71.363 582.669 71.4419 481.519V471.041C71.3027 379.805 97.9669 290.538 148.123 214.326H480.327C504.32 214.507 523.726 233.912 523.907 257.905Z" fill="black"/>
<path d="M43.6507 214.326H480.256C504.363 214.326 523.906 233.869 523.906 257.976V694.581C523.906 718.689 504.363 738.233 480.256 738.233H43.6507C19.5434 738.233 0 718.689 0 694.582V257.976C0 233.869 19.5434 214.326 43.6507 214.326Z" fill="url(#paint0_linear_1_2)"/>
<path d="M266.716 330.752C295.138 328.834 323.314 337.09 346.207 354.042C365.301 371.089 375.504 395.963 373.879 421.507C374.191 439.264 369.459 456.746 360.234 471.921C350.894 486.836 337.437 498.729 321.488 506.166C303.255 514.646 283.32 518.833 263.215 518.406H207.991V621.044H151.433V330.752H266.716ZM207.943 474.065H256.619C272.051 475.198 287.362 470.631 299.651 461.229C309.816 451.478 315.144 437.728 314.202 423.674C314.202 391.684 295.611 375.689 258.43 375.689H207.944V474.065H207.943Z" fill="white"/>
</g>
<defs>
<linearGradient id="paint0_linear_1_2" x1="91.0132" y1="180.218" x2="432.894" y2="772.341" gradientUnits="userSpaceOnUse">
<stop stop-color="#CA4C28"/>
<stop offset="0.5" stop-color="#C5401E"/>
<stop offset="1" stop-color="#B62F14"/>
</linearGradient>
<clipPath id="clip0_1_2">
<rect width="1024" height="952.558" fill="white"/>
</clipPath>
</defs>
</svg>
