<svg width="1024" height="953" viewBox="0 0 1024 953" fill="none" xmlns="http://www.w3.org/2000/svg">
<g clip-path="url(#clip0_1_35)">
<path d="M714.252 357.209H978.754C1003.74 357.209 1024 377.467 1024 402.456V643.382C1024 735.223 949.548 809.674 857.707 809.674H856.921C765.08 809.687 690.618 735.246 690.604 643.405C690.604 643.397 690.604 643.389 690.604 643.381V380.857C690.605 367.797 701.192 357.209 714.252 357.209Z" fill="#5059C9"/>
<path d="M893.023 309.581C952.208 309.581 1000.19 261.603 1000.19 202.418C1000.19 143.234 952.208 95.2557 893.023 95.2557C833.839 95.2557 785.861 143.234 785.861 202.418C785.861 261.603 833.839 309.581 893.023 309.581Z" fill="#5059C9"/>
<path d="M559.628 309.582C645.116 309.582 714.419 240.279 714.419 154.791C714.419 69.3022 645.116 0 559.628 0C474.139 0 404.837 69.3022 404.837 154.791C404.837 240.279 474.139 309.582 559.628 309.582Z" fill="#7B83EB"/>
<path d="M766.024 357.209H329.418C304.727 357.82 285.195 378.312 285.768 403.004V677.793C282.319 825.969 399.549 948.932 547.721 952.559C695.893 948.932 813.122 825.969 809.675 677.793V403.004C810.247 378.312 790.715 357.82 766.024 357.209Z" fill="#7B83EB"/>
<path opacity="0.1" d="M571.535 357.209V742.281C571.417 759.939 560.716 775.803 544.387 782.526C539.188 784.726 533.601 785.859 527.956 785.861H306.724C303.628 778.002 300.77 770.143 298.389 762.047C290.053 734.721 285.799 706.314 285.767 677.745V402.932C285.195 378.279 304.695 357.82 329.347 357.209H571.535Z" fill="black"/>
<path opacity="0.2" d="M547.721 357.209V766.095C547.72 771.74 546.586 777.328 544.387 782.526C537.664 798.855 521.8 809.556 504.142 809.674H317.916C313.868 801.816 310.058 793.957 306.724 785.861C303.39 777.764 300.77 770.143 298.389 762.047C290.053 734.722 285.799 706.314 285.767 677.745V402.932C285.195 378.279 304.695 357.82 329.347 357.209H547.721Z" fill="black"/>
<path opacity="0.2" d="M547.721 357.209V718.467C547.54 742.46 528.135 761.865 504.142 762.047H298.389C290.053 734.721 285.8 706.314 285.767 677.745V402.932C285.195 378.279 304.695 357.82 329.347 357.209H547.721Z" fill="black"/>
<path opacity="0.2" d="M523.907 357.209V718.467C523.725 742.46 504.32 761.865 480.327 762.047H298.389C290.053 734.721 285.8 706.314 285.767 677.745V402.932C285.195 378.279 304.695 357.82 329.347 357.209H523.907Z" fill="black"/>
<path opacity="0.1" d="M571.535 234.091V309.105C567.487 309.343 563.676 309.582 559.628 309.582C555.579 309.582 551.769 309.344 547.721 309.105C539.683 308.572 531.71 307.296 523.907 305.295C475.683 293.875 435.843 260.055 416.744 214.326C413.458 206.647 410.907 198.673 409.124 190.512H527.955C551.986 190.603 571.444 210.061 571.535 234.091Z" fill="black"/>
<path opacity="0.2" d="M547.721 257.905V309.105C539.683 308.572 531.711 307.297 523.907 305.295C475.684 293.875 435.844 260.055 416.745 214.326H504.142C528.172 214.417 547.63 233.875 547.721 257.905Z" fill="black"/>
<path opacity="0.2" d="M547.721 257.905V309.105C539.683 308.572 531.711 307.297 523.907 305.295C475.684 293.875 435.844 260.055 416.745 214.326H504.142C528.172 214.417 547.63 233.875 547.721 257.905Z" fill="black"/>
<path opacity="0.2" d="M523.907 257.905V305.295C475.683 293.875 435.843 260.055 416.744 214.326H480.327C504.358 214.417 523.816 233.875 523.907 257.905Z" fill="black"/>
<path d="M43.6508 214.326H480.256C504.363 214.326 523.906 233.869 523.906 257.976V694.581C523.906 718.689 504.363 738.232 480.256 738.232H43.6508C19.5429 738.232 0 718.689 0 694.581V257.976C0 233.869 19.5434 214.326 43.6508 214.326Z" fill="url(#paint0_linear_1_35)"/>
<path d="M376.832 380.499H289.554V618.163H233.949V380.499H147.075V334.396H376.832V380.499Z" fill="white"/>
</g>
<defs>
<linearGradient id="paint0_linear_1_35" x1="91.0133" y1="180.218" x2="432.894" y2="772.341" gradientUnits="userSpaceOnUse">
<stop stop-color="#5A62C3"/>
<stop offset="0.5" stop-color="#4D55BD"/>
<stop offset="1" stop-color="#3940AB"/>
</linearGradient>
<clipPath id="clip0_1_35">
<rect width="1024" height="952.558" fill="white"/>
</clipPath>
</defs>
</svg>
