<svg width="1024" height="953" viewBox="0 0 1024 953" fill="none" xmlns="http://www.w3.org/2000/svg">
<g clip-path="url(#clip0_1_12)">
<path d="M980.349 0H281.791C257.683 0 238.14 19.5432 238.14 43.6511V238.14L642.977 357.209L1024 238.14V43.6511C1024 19.5432 1004.46 0 980.349 0Z" fill="#41A5EE"/>
<path d="M1024 238.14H238.14V476.279L642.977 547.721L1024 476.279V238.14Z" fill="#2B7CD3"/>
<path d="M238.14 476.279V714.419L619.163 762.047L1024 714.419V476.279H238.14Z" fill="#185ABD"/>
<path d="M281.791 952.558H980.35C1004.46 952.558 1024 933.015 1024 908.907V714.419H238.14V908.907C238.14 933.015 257.683 952.558 281.791 952.558Z" fill="#103F91"/>
<path opacity="0.1" d="M527.884 190.512H238.14V785.86H527.884C551.959 785.782 571.457 766.285 571.535 742.209V234.163C571.457 210.087 551.959 190.59 527.884 190.512Z" fill="black"/>
<path opacity="0.2" d="M504.07 214.326H238.14V809.674H504.07C528.145 809.596 547.643 790.099 547.721 766.023V257.977C547.643 233.901 528.145 214.404 504.07 214.326Z" fill="black"/>
<path opacity="0.2" d="M504.07 214.326H238.14V762.047H504.07C528.145 761.968 547.643 742.471 547.721 718.395V257.977C547.643 233.901 528.145 214.404 504.07 214.326Z" fill="black"/>
<path opacity="0.2" d="M480.256 214.326H238.14V762.047H480.256C504.331 761.968 523.829 742.471 523.907 718.395V257.977C523.829 233.901 504.331 214.404 480.256 214.326Z" fill="black"/>
<path d="M43.6511 214.326H480.256C504.364 214.326 523.907 233.869 523.907 257.977V694.582C523.907 718.69 504.364 738.233 480.256 738.233H43.6511C19.5432 738.233 0 718.69 0 694.582V257.977C0 233.869 19.5432 214.326 43.6511 214.326Z" fill="url(#paint0_linear_1_12)"/>
<path d="M179.129 549.102C179.986 555.842 180.558 561.7 180.82 566.725H181.82C182.201 561.962 182.994 556.223 184.201 549.507C185.408 542.792 186.495 537.116 187.464 532.481L233.377 334.396H292.745L340.373 529.504C343.141 541.635 345.121 553.933 346.303 566.32H347.089C347.977 554.319 349.632 542.388 352.042 530.599L390.025 334.301H444.059L377.332 618.163H314.202L268.955 430.175C267.646 424.77 266.146 417.697 264.502 409.004C262.859 400.312 261.835 393.954 261.43 389.953H260.644C260.12 394.573 259.096 401.432 257.572 410.529C256.048 419.626 254.825 426.357 253.904 430.723L211.372 618.115H147.17L80.0864 334.395H135.096L176.461 532.884C177.391 536.957 178.272 542.387 179.129 549.102Z" fill="white"/>
</g>
<defs>
<linearGradient id="paint0_linear_1_12" x1="91.0132" y1="180.218" x2="432.894" y2="772.341" gradientUnits="userSpaceOnUse">
<stop stop-color="#2368C4"/>
<stop offset="0.5" stop-color="#1A5DBE"/>
<stop offset="1" stop-color="#1146AC"/>
</linearGradient>
<clipPath id="clip0_1_12">
<rect width="1024" height="952.558" fill="white"/>
</clipPath>
</defs>
</svg>
