<svg width="110" height="91" viewBox="0 0 110 91" fill="none" xmlns="http://www.w3.org/2000/svg">
<path d="M51.7756 3.45913C41.0634 17.7049 35.856 34.1079 37.1579 49.3951C37.8646 57.2805 40.431 66.0585 43.8902 72.3445C45.6756 75.6549 49.5438 81.4201 51.292 83.3914C52.1475 84.3213 52.817 85.2884 52.817 85.4744C52.817 86.0695 49.4695 87.0366 47.3493 87.0366C44.6713 87.0366 43.1091 86.3299 40.9518 84.0982C38.3109 81.3829 36.7859 77.4774 35.1865 69.1085C34.0335 63.2317 33.6243 61.8183 32.1365 58.8055C29.2725 53.003 24.8463 49.2835 18.8951 47.6097C15.3615 46.6427 15.2499 46.6799 16.9981 47.9445C21.0524 50.8829 24.5115 56.8341 27.1524 65.4634C31.9134 81.1225 32.3969 82.2012 35.4469 85.4372C40.5426 90.8677 47.7213 92.1695 52.8542 88.6732L54.7512 87.3713L56.6853 88.7103C61.2975 91.8719 67.2115 91.2024 72.5304 86.8506C76.1384 83.875 77.7749 80.7134 80.5274 71.4146C84.7676 57.0945 87.0737 52.3335 91.7603 48.5024C92.8762 47.6097 93.6573 46.8658 93.4713 46.8658C93.3225 46.8658 92.0579 47.2006 90.6816 47.5725C87.0365 48.614 84.0237 50.3622 81.4573 52.9658C77.589 56.7969 75.8408 60.814 74.4274 68.8853C72.9768 76.9939 70.9682 81.9408 68.0298 84.6189C66.0585 86.4043 64.4591 87.0366 62.0414 87.0366C60.1445 87.0366 56.5365 86.0323 56.5365 85.5116C56.5365 85.4 57.4664 84.1353 58.6195 82.7219C65.1658 74.725 69.4804 65.6866 71.489 55.6067C72.6048 50.1762 72.6792 39.9475 71.6749 34.5914C70.0012 25.553 65.5749 14.8408 60.442 7.25303C57.6896 3.16157 55.1603 -1.52588e-05 54.6768 -1.52588e-05C54.4908 -1.52588e-05 53.189 1.56218 51.7756 3.45913ZM56.6109 19.0067C60.9256 25.3299 64.1243 34.2567 65.1286 42.9231C66.1701 51.85 64.0127 63.7896 59.8097 72.3445C58.2847 75.4689 55.1975 80.3414 54.7884 80.3414C53.4493 80.3414 48.1676 69.6664 46.2707 63.1573C44.5969 57.2061 44.1134 52.8542 44.3737 45.564C44.5969 39.5384 45.006 37.1951 46.717 31.8018C48.4652 26.3341 53.7469 16.5146 54.7884 16.8494C55.0487 16.9238 55.867 17.8908 56.6109 19.0067Z" fill="#ECECEC"/>
<path d="M0 41.1007C0 41.2495 0.409146 42.0306 0.929878 42.9233C2.52927 45.6758 4.09146 49.8788 5.98841 56.6111C8.74085 66.505 9.74512 68.9227 12.5348 72.419C14.878 75.3203 20.2713 77.7379 24.3628 77.7007H25.8506L24.9951 77.0684C18.5232 72.2703 16.7006 69.5922 12.8695 59.4007C11.7537 56.4995 10.489 53.3007 10.0799 52.2965C8.81524 49.4325 6.1 45.6014 4.01707 43.7044C2.15732 42.0678 0 40.6544 0 41.1007Z" fill="#ECECEC"/>
<path d="M107.085 42.4022C104.63 44.2248 101.952 47.3864 100.427 50.2504C99.7945 51.4035 98.2323 55.1974 96.9305 58.6565C94.2896 65.6864 93.5085 67.323 91.5 70.2986C89.789 72.7534 87.5201 74.948 84.8421 76.7333L82.8707 78.0352L84.4701 77.8492C88.4128 77.4028 90.3469 76.9193 92.5415 75.8034C97.1537 73.4974 100.018 68.9595 102.51 60.0699C105.039 51.0315 106.378 47.0516 108.052 43.9644C108.945 42.2906 109.54 40.9144 109.354 40.9144C109.205 40.9144 108.163 41.5839 107.085 42.4022Z" fill="#ECECEC"/>
</svg>
