<svg width="55" height="55" viewBox="0 0 55 55" fill="none" xmlns="http://www.w3.org/2000/svg">
<rect width="55" height="55" rx="10" fill="#ED0510"/>
<path d="M27.5 35.8333L33.0556 30.2778L31.1111 28.3333L28.8889 30.5556V24.7222H26.1111V30.5556L23.8889 28.3333L21.9444 30.2778L27.5 35.8333ZM17.7778 40C17.0139 40 16.36 39.728 15.816 39.184C15.272 38.64 15 37.9861 15 37.2222V19.8958C15 19.5718 15.0521 19.2593 15.1562 18.9583C15.2604 18.6574 15.4167 18.3796 15.625 18.125L17.3611 16.0069C17.6157 15.6829 17.934 15.434 18.316 15.2604C18.6979 15.0868 19.0972 15 19.5139 15H35.4861C35.9028 15 36.3021 15.0868 36.684 15.2604C37.066 15.434 37.3843 15.6829 37.6389 16.0069L39.375 18.125C39.5833 18.3796 39.7396 18.6574 39.8437 18.9583C39.9479 19.2593 40 19.5718 40 19.8958V37.2222C40 37.9861 39.728 38.64 39.184 39.184C38.64 39.728 37.9861 40 37.2222 40H17.7778ZM18.3333 19.1667H36.6667L35.4861 17.7778H19.5139L18.3333 19.1667Z" fill="white"/>
</svg>
