<svg width="30" height="30" viewBox="0 0 30 30" fill="none" xmlns="http://www.w3.org/2000/svg">
<rect width="30" height="30" fill="white"/>
<path d="M21.8858 10.9862C21.7814 11.0672 19.9382 12.1058 19.9382 14.4152C19.9382 17.0864 22.2836 18.0314 22.3538 18.0548C22.343 18.1124 21.9812 19.349 21.1172 20.609C20.3468 21.7178 19.5422 22.8248 18.3182 22.8248C17.0942 22.8248 16.7792 22.1138 15.3662 22.1138C13.9892 22.1138 13.4996 22.8482 12.38 22.8482C11.2604 22.8482 10.4792 21.8222 9.58095 20.5622C8.54055 19.0826 7.69995 16.784 7.69995 14.6024C7.69995 11.1032 9.97515 9.24741 12.2144 9.24741C13.4042 9.24741 14.396 10.0286 15.143 10.0286C15.854 10.0286 16.9628 9.20061 18.3164 9.20061C18.8294 9.20061 20.6726 9.24741 21.8858 10.9862ZM17.6738 7.71921C18.2336 7.05501 18.6296 6.13341 18.6296 5.21181C18.6296 5.08401 18.6188 4.95441 18.5954 4.85001C17.6846 4.88421 16.601 5.45661 15.9476 6.21441C15.4346 6.79761 14.9558 7.71921 14.9558 8.65341C14.9558 8.79381 14.9792 8.93421 14.99 8.97921C15.0476 8.99001 15.1412 9.00261 15.2348 9.00261C16.052 9.00261 17.0798 8.45541 17.6738 7.71921Z" fill="black"/>
</svg>
