<svg width="30" height="30" viewBox="0 0 30 30" fill="none" xmlns="http://www.w3.org/2000/svg">
<rect width="30" height="30" fill="white"/>
<path d="M23.8045 15.2025C23.8045 14.61 23.752 14.0475 23.662 13.5H15.187V16.8825H20.0395C19.822 17.9925 19.1845 18.93 18.2395 19.5675V21.8175H21.1345C22.8295 20.25 23.8045 17.94 23.8045 15.2025Z" fill="#4285F4"/>
<path d="M15.187 24C17.617 24 19.6495 23.19 21.1345 21.8175L18.2395 19.5675C17.4295 20.1075 16.402 20.4375 15.187 20.4375C12.8395 20.4375 10.852 18.855 10.1395 16.7175H7.15454V19.035C8.63204 21.975 11.6695 24 15.187 24Z" fill="#34A853"/>
<path d="M10.1395 16.7175C9.95201 16.1775 9.85451 15.6 9.85451 15C9.85451 14.4 9.95951 13.8225 10.1395 13.2825V10.965H7.15451C6.53951 12.18 6.18701 13.545 6.18701 15C6.18701 16.455 6.53951 17.82 7.15451 19.035L10.1395 16.7175Z" fill="#FBBC05"/>
<path d="M15.187 9.5625C16.5145 9.5625 17.6995 10.02 18.637 10.9125L21.202 8.3475C19.6495 6.8925 17.617 6 15.187 6C11.6695 6 8.63204 8.025 7.15454 10.965L10.1395 13.2825C10.852 11.145 12.8395 9.5625 15.187 9.5625Z" fill="#EA4335"/>
</svg>
