<svg width="30" height="30" viewBox="0 0 30 30" fill="none" xmlns="http://www.w3.org/2000/svg">
<g clip-path="url(#clip0_1_7518)">
<path d="M30 0H0V30H30V0Z" fill="#E50001"/>
<path d="M25.1842 4.81561H4.81396V25.1858H25.1842V4.81561Z" fill="#E50001"/>
<path d="M18.6764 8.69451C20.1249 8.69451 21.3 14.8057 21.3 22.3531H23.4137C23.4137 14.2277 21.2812 7.65005 18.6701 7.65005C17.1779 7.65005 15.8602 9.62081 14.9897 12.7169C14.1194 9.62091 12.8014 7.65005 11.3218 7.65005C8.71066 7.65005 6.58447 14.2214 6.58447 22.3469H8.69824C8.69824 14.7996 9.86081 8.69451 11.3093 8.69451C12.7579 8.69451 13.9328 14.3395 13.9328 21.3024H16.0342C16.0342 14.3394 17.2153 8.69451 18.664 8.69451" fill="#FFCC00"/>
</g>
<defs>
<clipPath id="clip0_1_7518">
<rect width="30" height="30" fill="white"/>
</clipPath>
</defs>
</svg>
