<svg width="30" height="30" viewBox="0 0 30 30" fill="none" xmlns="http://www.w3.org/2000/svg">
<rect width="30" height="30" fill="#010202"/>
<path d="M7.7875 15.3783C7.85634 15.561 7.95169 15.7173 8.07354 15.847C8.1954 15.9768 8.33971 16.0761 8.50656 16.1449C8.6734 16.2138 8.85482 16.2483 9.05083 16.2483C9.24153 16.2483 9.42025 16.2125 9.58713 16.141C9.754 16.0695 9.8996 15.9688 10.0242 15.8391C10.1486 15.7093 10.2453 15.5543 10.3142 15.3743C10.383 15.1942 10.4175 14.9931 10.4175 14.7704V11.338H11.2517V16.8997H10.4253V16.3834C10.24 16.5793 10.0215 16.7302 9.76985 16.8363C9.51822 16.9422 9.24677 16.9952 8.95544 16.9952C8.65881 16.9952 8.38205 16.9435 8.12513 16.8402C7.86825 16.7369 7.64573 16.59 7.45773 16.3993C7.26969 16.2086 7.12137 15.9795 7.01277 15.712C6.90417 15.4446 6.84985 15.1466 6.84985 14.8182V11.338H7.6841V14.7705C7.68422 14.9929 7.71862 15.1955 7.7875 15.3783ZM12.6897 11.338V13.3641C12.8751 13.1786 13.0896 13.0317 13.3333 12.9232C13.5769 12.8146 13.8419 12.7602 14.1279 12.7602C14.4245 12.7602 14.7026 12.8158 14.9621 12.9271C15.2218 13.0383 15.4468 13.1893 15.6376 13.38C15.8282 13.5707 15.9791 13.7958 16.0905 14.0553C16.2017 14.3148 16.2573 14.5903 16.2573 14.8816C16.2573 15.173 16.2017 15.4471 16.0905 15.704C15.9791 15.9609 15.8282 16.1847 15.6376 16.3754C15.4468 16.5661 15.2218 16.7171 14.9621 16.8283C14.7026 16.9396 14.4244 16.9952 14.1279 16.9952C13.8419 16.9952 13.5757 16.9409 13.3293 16.8322C13.083 16.7237 12.8672 16.5766 12.6817 16.3913V16.8998H11.8872V11.338H12.6897ZM12.7811 15.4299C12.8525 15.5993 12.952 15.7477 13.079 15.8749C13.2061 16.002 13.3545 16.1026 13.524 16.1767C13.6935 16.251 13.8763 16.288 14.0722 16.288C14.2629 16.288 14.443 16.251 14.6125 16.1767C14.782 16.1026 14.929 16.002 15.0534 15.8749C15.1779 15.7477 15.2773 15.5994 15.3513 15.4299C15.4255 15.2604 15.4626 15.0776 15.4626 14.8817C15.4626 14.6857 15.4255 14.5017 15.3513 14.3295C15.2772 14.1573 15.1779 14.0077 15.0534 13.8806C14.929 13.7535 14.782 13.6542 14.6125 13.5827C14.443 13.5112 14.2629 13.4754 14.0722 13.4754C13.8815 13.4754 13.7014 13.5112 13.532 13.5827C13.3624 13.6542 13.2141 13.7536 13.087 13.8806C12.9599 14.0077 12.8593 14.1574 12.785 14.3295C12.7109 14.5016 12.6738 14.6857 12.6738 14.8817C12.6738 15.0776 12.7097 15.2604 12.7811 15.4299ZM16.7101 14.0632C16.8159 13.8089 16.9615 13.5852 17.147 13.3918C17.3324 13.1985 17.5523 13.0462 17.8065 12.9351C18.0607 12.8238 18.3363 12.7682 18.6328 12.7682C18.9242 12.7682 19.1943 12.8212 19.4433 12.9271C19.6922 13.033 19.9067 13.18 20.0868 13.3681C20.2669 13.5562 20.4072 13.7785 20.508 14.0354C20.6085 14.2924 20.6589 14.5717 20.6589 14.8737V15.1359H17.3615C17.388 15.3002 17.4409 15.4524 17.5204 15.5928C17.5999 15.7331 17.6993 15.855 17.8184 15.9582C17.9375 16.0615 18.0726 16.1422 18.2237 16.2005C18.3746 16.2589 18.5347 16.288 18.7044 16.288C19.1864 16.288 19.5757 16.0893 19.8723 15.692L20.4524 16.1211C20.2511 16.3912 20.0021 16.6031 19.7055 16.7567C19.4088 16.9102 19.0752 16.987 18.7044 16.987C18.4024 16.987 18.1203 16.9341 17.8582 16.8281C17.596 16.7222 17.3682 16.5739 17.175 16.3832C16.9817 16.1925 16.8292 15.9686 16.718 15.7117C16.6069 15.4549 16.5513 15.1754 16.5513 14.8734C16.5512 14.5877 16.6041 14.3176 16.7101 14.0632ZM17.8263 13.7495C17.6013 13.9375 17.4516 14.1877 17.3775 14.5003H19.8486C19.7797 14.1877 19.6327 13.9375 19.4077 13.7495C19.1825 13.5614 18.919 13.4674 18.6171 13.4674C18.315 13.4674 18.0515 13.5614 17.8263 13.7495ZM22.1605 13.8408C21.9911 14.0262 21.9063 14.2777 21.9063 14.5957V16.8998H21.1038V12.8477H21.8983V13.3482C21.999 13.184 22.13 13.0542 22.2917 12.959C22.4532 12.8635 22.6453 12.8159 22.8677 12.8159H23.1457V13.5628H22.8121C22.5472 13.5627 22.33 13.6553 22.1605 13.8408Z" fill="white"/>
</svg>
