<svg width="30" height="30" viewBox="0 0 30 30" fill="none" xmlns="http://www.w3.org/2000/svg">
<rect width="30" height="30" fill="#06C168"/>
<path d="M24.0775 10.2212V9.40931H23.768C23.2764 9.40931 22.9124 9.63505 22.6939 9.98823V9.44208H21.8128V13.8513H22.7012V11.3463C22.7012 10.6618 23.1235 10.2212 23.7061 10.2212H24.0775ZM17.6839 11.2407C17.8441 10.5671 18.3975 10.1157 19.0565 10.1157C19.7156 10.1157 20.2726 10.5635 20.4219 11.2407H17.6839ZM19.0747 9.35833C17.764 9.35833 16.7664 10.4033 16.7664 11.6485C16.7664 12.9629 17.8041 13.9496 19.1549 13.9496C19.9741 13.9496 20.644 13.5964 21.0919 13.0066L20.4474 12.5406C20.1124 12.9811 19.6719 13.1887 19.1512 13.1887C18.3939 13.1887 17.7859 12.6534 17.6621 11.9362H21.3176V11.6522C21.3212 10.3341 20.371 9.35833 19.0747 9.35833ZM13.9919 13.1887C13.129 13.1887 12.4409 12.5041 12.4409 11.6594C12.4409 10.8038 13.1363 10.1302 13.9919 10.1302C14.8367 10.1302 15.5321 10.8038 15.5321 11.6594C15.5357 12.5041 14.8403 13.1887 13.9919 13.1887ZM11.5707 13.8549H12.4518V13.3015C12.856 13.7093 13.4312 13.9569 14.0538 13.9569C15.3755 13.9569 16.4132 12.9265 16.4132 11.6558C16.4132 10.3778 15.3755 9.34743 14.0538 9.34743C13.4276 9.34743 12.8633 9.59866 12.4591 10.0028V7.8H11.5707V13.8549ZM8.4431 13.145C9.29873 13.145 9.95774 12.4969 9.95774 11.5357V7.8H10.8826V13.8513H9.96502V13.2906C9.54996 13.7129 8.97832 13.9569 8.33387 13.9569C7.01219 13.9569 6 13.0139 6 11.5866V7.8H6.92845V11.5357C6.92845 12.5151 7.58018 13.145 8.4431 13.145Z" fill="#040000"/>
<path d="M14.5454 19.7947C14.5454 19.0301 13.9337 18.4294 13.1618 18.4294C12.4009 18.4294 11.7783 19.0301 11.7783 19.7947C11.7783 20.5593 12.4009 21.1601 13.1618 21.1601C13.9337 21.1601 14.5454 20.5593 14.5454 19.7947ZM15.674 17.5592V22.0339H14.5235V21.6298C14.1231 21.9611 13.6169 22.1468 13.0671 22.1468C11.7055 22.1468 10.6423 21.1018 10.6423 19.7947C10.6423 18.4913 11.709 17.4427 13.0671 17.4427C13.6169 17.4427 14.1231 17.6284 14.5235 17.9597V17.5592H15.674ZM19.4972 21.0181H18.6306C18.3684 21.0181 18.1974 20.9052 18.1974 20.6649V18.5713H19.4934V17.5592H18.1974V16.2848H17.0358V17.5592H16.1619V18.575H17.0358V20.9525C17.0358 21.5533 17.469 22.0303 18.2482 22.0303H19.4934V21.0181H19.4972ZM22.1185 22.1468C23.4475 22.1468 24.1976 21.5242 24.1976 20.6649C24.1976 20.0532 23.7533 19.5981 22.825 19.4015L21.842 19.2049C21.274 19.1029 21.0919 18.9973 21.0919 18.7898C21.0919 18.5204 21.365 18.3565 21.8709 18.3565C22.4207 18.3565 22.8214 18.5022 22.9378 18.9973H24.0883C24.0266 18.0653 23.3382 17.4427 21.9475 17.4427C20.7459 17.4427 19.9012 17.9306 19.9012 18.8736C19.9012 19.5253 20.3674 19.9513 21.3685 20.1588L22.4646 20.4064C22.8977 20.4901 23.0144 20.603 23.0144 20.7778C23.0144 21.0582 22.6867 21.2329 22.1586 21.2329C21.4959 21.2329 21.1136 21.0873 20.968 20.5921H19.8067C19.9777 21.5242 20.6842 22.1468 22.1185 22.1468ZM6 15.9717H10.3364V17.0057H7.17239V18.4876H10.2527V19.4925H7.17239V20.9926H10.3364V22.0266H6V15.9717Z" fill="#040000"/>
</svg>
