<svg width="35" height="34" viewBox="0 0 35 34" fill="none" xmlns="http://www.w3.org/2000/svg">
<path d="M23.8333 24.5L18.5833 19.25C18.1667 19.5833 17.6875 19.8472 17.1458 20.0417C16.6042 20.2361 16.0278 20.3333 15.4167 20.3333C13.9028 20.3333 12.6215 19.809 11.5729 18.7604C10.5243 17.7118 10 16.4306 10 14.9167C10 13.4028 10.5243 12.1215 11.5729 11.0729C12.6215 10.0243 13.9028 9.5 15.4167 9.5C16.9306 9.5 18.2118 10.0243 19.2604 11.0729C20.309 12.1215 20.8333 13.4028 20.8333 14.9167C20.8333 15.5278 20.7361 16.1042 20.5417 16.6458C20.3472 17.1875 20.0833 17.6667 19.75 18.0833L25 23.3333L23.8333 24.5ZM15.4167 18.6667C16.4583 18.6667 17.3438 18.3021 18.0729 17.5729C18.8021 16.8438 19.1667 15.9583 19.1667 14.9167C19.1667 13.875 18.8021 12.9896 18.0729 12.2604C17.3438 11.5312 16.4583 11.1667 15.4167 11.1667C14.375 11.1667 13.4896 11.5312 12.7604 12.2604C12.0312 12.9896 11.6667 13.875 11.6667 14.9167C11.6667 15.9583 12.0312 16.8438 12.7604 17.5729C13.4896 18.3021 14.375 18.6667 15.4167 18.6667Z" fill="white"/>
</svg>
